<svg xmlns="http://www.w3.org/2000/svg" width="78" height="49" viewBox="0 0 78 49" fill="none"><g id="Podro Logo"><g id="Group 2"><path id="Vector" d="M34.8585 3.9839C39.5035 7.81109 45.1492 29.7732 39.8775 41.2042C31.2346 59.9408 -22.1646 31.659 15.2275 7.03756C22.7483 2.10822 31.0476 0.844288 34.8585 3.9839Z" fill="#00CC77"></path><path id="Vector_2" d="M16.3403 27.8928C18.8675 39.4704 65.0441 50.6082 73.3888 39.3188C78.9688 31.7301 74.4452 13.8278 65.1199 6.17843C47.3791 -8.43769 13.2269 13.6457 16.3353 27.8979" fill="#883DF2"></path><path id="Vector_3" d="M35.6929 4.8532C40.1357 10.3842 44.8362 30.4554 39.8779 41.2039C39.8324 41.3 39.7819 41.3859 39.7364 41.4769C27.9799 38.4839 17.5073 33.231 16.3398 27.8871C14.6466 20.1367 23.9769 10.0707 35.6929 4.84814" fill="#051E64"></path><path id="Vector_4" fill-rule="evenodd" clip-rule="evenodd" d="M28.4139 30.467C27.6608 30.467 26.9885 30.4468 26.3921 30.3861C26.0636 30.3507 25.8159 30.0777 25.8159 29.7491V28.743C25.8159 28.3436 26.0838 28.0757 26.5589 28.111C27.0694 28.1464 27.681 28.1919 28.4088 28.1919H29.3287C31.2292 28.1919 32.7101 28.3588 32.7354 25.9927C32.7354 24.8046 32.7354 23.6216 32.7354 22.4335C32.7101 20.2342 31.5729 20.2342 29.3287 20.2342C27.0846 20.2342 25.917 20.2342 25.917 22.5093C25.917 24.7844 27.1351 24.7844 29.3287 24.7844C30.0565 24.7844 30.6732 24.7844 31.1786 24.7035C31.5728 24.6378 31.9216 24.936 31.9216 25.3354V26.3415C31.9216 26.6702 31.6739 26.9432 31.3454 26.9786C30.749 27.0392 30.0768 27.0594 29.3237 27.0594C25.3459 27.0594 23.6426 26.4932 23.6426 22.5143C23.6426 18.5355 25.3459 17.9692 29.3237 17.9692C33.3014 17.9692 35.0047 18.5355 35.0047 22.5143V25.927C35.0047 29.9058 33.3014 30.4721 29.3237 30.4721H28.4038L28.4139 30.467Z" fill="white"></path><path id="Vector_5" d="M44.6693 17.9626C48.6471 17.9626 50.3504 18.5288 50.3504 22.5077C50.3504 26.4865 48.6471 27.0528 44.6693 27.0528C43.9465 27.0528 43.3046 27.0326 42.7284 26.982C42.4353 26.9567 42.2129 26.709 42.2129 26.4158V25.1569C42.2129 25.0103 42.2735 24.8889 42.3847 24.7929C42.4959 24.7019 42.6273 24.6665 42.7739 24.6918C43.2844 24.7828 43.9213 24.7828 44.6744 24.7828C46.8629 24.7828 48.086 24.7828 48.086 22.5077C48.086 20.2326 46.964 20.2427 44.6946 20.2427C44.2599 20.2427 43.987 20.2326 43.3855 20.3034C43.0772 20.3388 42.7992 20.0506 42.7992 19.7371V18.5996C42.7992 18.2861 43.062 18.094 43.3653 18.0334C43.7494 17.9575 44.2346 17.9575 44.6744 17.9575" fill="white"></path><path id="Vector_6" fill-rule="evenodd" clip-rule="evenodd" d="M36.1372 28.2011C37.7596 28.196 38.8312 27.9483 38.8312 25.5468C38.8312 21.5073 38.7756 19.5709 38.72 18.5699C38.7099 18.4081 38.7655 18.2666 38.8766 18.1503C38.9878 18.034 39.1294 17.9733 39.2911 17.9733H40.4334C40.7316 17.9733 40.9793 18.2059 40.9995 18.5042C41.0551 19.3384 41.1056 21.2747 41.1056 25.1727C41.1056 29.0707 39.7207 30.3346 36.1625 30.466C36.0007 30.4711 35.8643 30.4205 35.748 30.3093C35.6318 30.1981 35.5762 30.0616 35.5762 29.8998V28.7724C35.5762 28.4589 35.8289 28.2061 36.1423 28.2061" fill="white"></path><path id="Vector_7" fill-rule="evenodd" clip-rule="evenodd" d="M51.4609 22.509V15.1175C51.4609 14.8041 51.7187 14.5513 52.027 14.5513H53.1643C53.4776 14.5513 53.7303 14.8041 53.7303 15.1175V22.509C53.7303 24.7841 54.9484 24.7841 57.142 24.7841C59.3356 24.7841 60.5537 24.7841 60.5537 22.509V20.8558C60.5537 20.5423 60.8115 20.2895 61.1198 20.2895H62.257C62.5704 20.2895 62.8231 20.5474 62.8231 20.8558V22.509C62.8231 26.4879 61.1198 27.0541 57.142 27.0541C53.1642 27.0541 51.4609 26.4879 51.4609 22.509Z" fill="white"></path><path id="Vector_8" fill-rule="evenodd" clip-rule="evenodd" d="M54.3024 28.1919H59.6044C60.125 28.1919 60.5496 28.6166 60.5496 29.1373V31.7916C60.5496 32.105 60.2918 32.3578 59.9835 32.3578H58.8463C58.5329 32.3578 58.2802 32.1 58.2802 31.7916V30.654C58.2802 30.5479 58.1943 30.467 58.0932 30.467H54.3024C53.989 30.467 53.7363 30.2091 53.7363 29.9007V28.7632C53.7363 28.4497 53.9941 28.1969 54.3024 28.1969" fill="white"></path></g></g></svg>